<svg width="20" height="20" viewBox="0 0 20 20" fill="none" xmlns="http://www.w3.org/2000/svg">
<path d="M2.5 5.31343C2.5 4.9101 2.7875 4.5826 3.1425 4.5826H5.36333C5.80417 4.56927 6.19333 4.2501 6.34333 3.77843L6.36833 3.6951L6.46417 3.36927C6.5225 3.16927 6.57333 2.99427 6.645 2.83843C6.92667 2.2226 7.44833 1.7951 8.05083 1.68593C8.20417 1.65843 8.36583 1.65843 8.55083 1.65843H11.4492C11.635 1.65843 11.7967 1.65843 11.9492 1.68593C12.5517 1.7951 13.0742 2.2226 13.355 2.83843C13.4267 2.99427 13.4775 3.16843 13.5367 3.36927L13.6317 3.6951L13.6567 3.77843C13.8067 4.2501 14.2733 4.5701 14.715 4.5826H16.8567C17.2125 4.5826 17.5 4.9101 17.5 5.31343C17.5 5.71677 17.2125 6.04427 16.8575 6.04427H3.14167C2.7875 6.04427 2.5 5.71677 2.5 5.31343Z" fill="#FF5630"/>
<path fill-rule="evenodd" clip-rule="evenodd" d="M9.66333 18.3251H10.3367C12.6558 18.3251 13.815 18.3251 14.57 17.5868C15.3233 16.8484 15.4 15.6376 15.5542 13.2159L15.7767 9.72593C15.86 8.41177 15.9017 7.75427 15.5242 7.33843C15.1458 6.92177 14.5075 6.92177 13.23 6.92177H6.77C5.4925 6.92177 4.85333 6.92177 4.47583 7.33843C4.0975 7.7551 4.13917 8.41177 4.22333 9.72593L4.44583 13.2159C4.6 15.6376 4.67667 16.8493 5.43083 17.5868C6.185 18.3251 7.34417 18.3251 9.66333 18.3251ZM8.53833 10.1493C8.505 9.7876 8.19833 9.52427 7.855 9.5601C7.51083 9.59593 7.26083 9.91843 7.295 10.2801L7.71167 14.6659C7.745 15.0276 8.05167 15.2909 8.395 15.2551C8.73917 15.2193 8.98917 14.8968 8.955 14.5351L8.53833 10.1493ZM12.1458 9.5601C12.4892 9.59593 12.74 9.91843 12.705 10.2801L12.2883 14.6659C12.255 15.0276 11.9475 15.2909 11.605 15.2551C11.2608 15.2193 11.0108 14.8968 11.045 14.5351L11.4617 10.1493C11.495 9.7876 11.8033 9.52427 12.1458 9.5601Z" fill="#FF5630"/>
</svg>
